<svg xmlns="http://www.w3.org/2000/svg" viewBox="0 0 512 512" role="img" aria-labelledby="title description">
  <title id="title">Sovereign.OS</title>
  <desc id="description">A restrained Sovereign.OS application mark.</desc>
  <defs>
    <radialGradient id="background" cx="72%" cy="8%" r="96%">
      <stop offset="0" stop-color="#2a211d"/>
      <stop offset="0.48" stop-color="#141318"/>
      <stop offset="1" stop-color="#08080a"/>
    </radialGradient>
    <linearGradient id="ring" x1="0" y1="0" x2="1" y2="1">
      <stop stop-color="#f2efe8"/>
      <stop offset="0.52" stop-color="#d99c6b"/>
      <stop offset="1" stop-color="#d6ff72"/>
    </linearGradient>
    <filter id="glow" x="-40%" y="-40%" width="180%" height="180%">
      <feGaussianBlur stdDeviation="11" result="blur"/>
      <feMerge><feMergeNode in="blur"/><feMergeNode in="SourceGraphic"/></feMerge>
    </filter>
  </defs>
  <rect width="512" height="512" rx="118" fill="url(#background)"/>
  <circle cx="256" cy="256" r="176" fill="none" stroke="rgba(255,255,255,.08)" stroke-width="2"/>
  <path d="M358 159c-24-29-58-45-101-45-64 0-111 33-111 84 0 47 35 70 106 86 57 13 78 25 78 51 0 29-29 47-74 47-48 0-87-19-112-52" fill="none" stroke="url(#ring)" stroke-width="34" stroke-linecap="round" stroke-linejoin="round" filter="url(#glow)"/>
  <circle cx="365" cy="151" r="10" fill="#d6ff72"/>
  <circle cx="137" cy="338" r="10" fill="#d99c6b"/>
</svg>
